REM Ripping Tool: trurip

FILE "Tokimeki Memorial (1994)(Konami)(JP)[HRKM70217-4FAAT].img" BINARY
  TRACK 01 AUDIO
    INDEX 01 00:00:00
  TRACK 02 MODE1/2352
    INDEX 00 01:00:28
    INDEX 01 01:03:28
  TRACK 03 AUDIO
    INDEX 00 08:20:33
    INDEX 01 08:22:33
  TRACK 04 MODE1/2352
    INDEX 00 08:31:35
    INDEX 01 08:34:35
  TRACK 05 AUDIO
    INDEX 00 46:10:34
    INDEX 01 46:12:34
  TRACK 06 AUDIO
    INDEX 01 47:29:26
  TRACK 07 AUDIO
    INDEX 01 50:41:39
  TRACK 08 MODE1/2352
    INDEX 00 51:49:55
    INDEX 01 51:52:55

REM DISC HASHES
REM CRC32 : fec73569
REM MD5   : dd3e0f1e2f3d94d69dd138bcc5b021d4
REM SHA1  : 5117c21a348924891b11079cda289672c6ac0cb3

REM Gap Append Method: Prev [crc32]
REM Trk 01: b4bd4631
REM Trk 02: 31bf8805
REM Trk 03: 10523418
REM Trk 04: 8fc78eaf
REM Trk 05: 161a0c00
REM Trk 06: 120964af
REM Trk 07: a85e4468
REM Trk 08: 91b54af3

REM Gap Append Method: Prev [md5]
REM Trk 01: 1decdf558e5005157c68fbe8c4ea751e
REM Trk 02: 07764560fa371b37f8ef58e8b8c9f487
REM Trk 03: 2a71f74b07dcada581efabb48aae9b76
REM Trk 04: a4768c3625e9d92648fe5cf5cf479a2e
REM Trk 05: 1760a45d58f5b138a9b8a3b69fefbe5b
REM Trk 06: 0402e10f8c46d136cdb68b8cbf3c99f3
REM Trk 07: 8e2dcd2bc83e76ba8a1899fa7fd6dc8c
REM Trk 08: bac8e7270821f13d1a4fe08a4247a009

REM Gap Append Method: Prev [sha1]
REM Trk 01: 26c8df8f14319ce181e22c0587b215b5ebd74dfd
REM Trk 02: b4bd2d2a6964b4ef26f6ef4e7d4aeb199e87da86
REM Trk 03: a75127c8138e1130462a7bad7ef40a2c327feebf
REM Trk 04: 7c2a81b7110efda5115d2fef1f1379999921cc51
REM Trk 05: 36f8c3d5d315cb2cd33a3fe3ebf77331c62e84d7
REM Trk 06: 2035bbdc56bd7b80d90dd21e2c77d79a2254d2d2
REM Trk 07: d63f82f631d6ce23a87231946b41d1e8f0a02450
REM Trk 08: 199d16b61f7138ef608f4ae76cafd5b6a4d4fbc3

REM Gap Append Method: None [crc32]
REM Trk 01: 0fa25b85
REM Trk 02: 0ebec527
REM Trk 03: 94119657
REM Trk 04: c3a70614
REM Trk 05: 161a0c00
REM Trk 06: 120964af
REM Trk 07: 564054e9
REM Trk 08: 91b54af3
REM Gap 02: e78bf7c1
REM Gap 03: 7abe247f
REM Gap 04: c127d3fc
REM Gap 05: 7abe247f
REM Gap 08: a4e1bc1f

REM Gap Append Method: None [md5]
REM Trk 01: d3811bde25f15728a0fed5f10b8dcd4d
REM Trk 02: 086ca547543e1a71c8f42dadf8a4e325
REM Trk 03: 8a24b9462399b5562e133353b078e8d9
REM Trk 04: df89e6ab81bcdb200afb86d67e3f1fcb
REM Trk 05: 1760a45d58f5b138a9b8a3b69fefbe5b
REM Trk 06: 0402e10f8c46d136cdb68b8cbf3c99f3
REM Trk 07: 8d0be83ccb85a6acf712ba2cdf168031
REM Trk 08: bac8e7270821f13d1a4fe08a4247a009
REM Gap 02: 17a97db3c56118e5883f572918c29478
REM Gap 03: 9df204fbc98bb8965081cb30a89715fc
REM Gap 04: 117aa92634b89c9911a4269c5eae08bf
REM Gap 05: 9df204fbc98bb8965081cb30a89715fc
REM Gap 08: fb29a8be7f6357aa98e8b85bf8645d3c

REM Gap Append Method: None [sha1]
REM Trk 01: d6fb3fa5401194c36b285bd7d9751ef87f4448c9
REM Trk 02: a4970ad0f5530644e676a98dfe65950b68c1803b
REM Trk 03: 1f7ac40cf64dea4d2dc0ac6ef111890dbbe21557
REM Trk 04: 872a4f8da81fe2a3ffcd464ea8d6e60792c464df
REM Trk 05: 36f8c3d5d315cb2cd33a3fe3ebf77331c62e84d7
REM Trk 06: 2035bbdc56bd7b80d90dd21e2c77d79a2254d2d2
REM Trk 07: d11d765b5b68052cfb0e421ccbb30e982b5c48ef
REM Trk 08: 199d16b61f7138ef608f4ae76cafd5b6a4d4fbc3
REM Gap 02: 72eb9ecc3d8b495e799a6e0eca89071f6513c4fc
REM Gap 03: cbe29e0bd725ef1194f8c47619dd42078e841de2
REM Gap 04: 7818e4a33a1e35218afc986d40bb9cbd604aa95b
REM Gap 05: cbe29e0bd725ef1194f8c47619dd42078e841de2
REM Gap 08: b3ec7629ad8591e1e53751ffc4d0c023df4977cf

REM Gap Append Method: Next [crc32]
REM Trk 01: 0fa25b85
REM Trk 02: 80d5005b
REM Trk 03: b434ff5a
REM Trk 04: f70d589b
REM Trk 05: ef285fba
REM Trk 06: 120964af
REM Trk 07: 564054e9
REM Trk 08: dcbf3f28

REM Gap Append Method: Next [md5]
REM Trk 01: d3811bde25f15728a0fed5f10b8dcd4d
REM Trk 02: 9f6e68b414c8a295ce5c219489bcf00d
REM Trk 03: ffd96a53b83adade4d3c0a86aa187305
REM Trk 04: 02ecaff7f61a3e55fdc5332a150f453d
REM Trk 05: 1fddff1a70b6ca74d0cce60d48c1fc1c
REM Trk 06: 0402e10f8c46d136cdb68b8cbf3c99f3
REM Trk 07: 8d0be83ccb85a6acf712ba2cdf168031
REM Trk 08: 3bbc476c2931f2c774dcb80c73543c3a

REM Gap Append Method: Next [sha1]
REM Trk 01: d6fb3fa5401194c36b285bd7d9751ef87f4448c9
REM Trk 02: 8d028772bb06c5dd7806f1174331d6646635a822
REM Trk 03: a80596ae099e04232c32f1635ad206f72c2780f7
REM Trk 04: 9a875a7f2aeac5de848a1acea2572aea28d4ea0c
REM Trk 05: 0360f83c1753f07e7974ffd5ea6d87767850d870
REM Trk 06: 2035bbdc56bd7b80d90dd21e2c77d79a2254d2d2
REM Trk 07: d11d765b5b68052cfb0e421ccbb30e982b5c48ef
REM Trk 08: 951795c847a911ad60fec3d1e98b35a6b696afce

